[img]http://www.shotpix.com/images/29274810157010578388.jpg[/img]

Language : English
SUBS  : English
         VIDEO :

      Format : MP4 | AVC
      Format/Info : Advanced Video Codec
      Format profile : High@L4.0
      Format settings, ReFrames : 3 frames
      Codec ID : avc1
      Codec ID/Info : Advanced Video Coding
      Duration : 1h 57mn
      Bit rate : 900 Kbps
      Width : 1 920 pixels
      Height : 800 pixels
      Display aspect ratio : 2.40:1
      Frame rate mode : Constant
      Frame rate : 23.976 fps
      Chroma subsampling : 4:2:0
      Bit depth : 8 bits
      Scan type : Progressive
      Bits/(Pixel*Frame) : 0.024
      Stream size : 743 MiB (82%)

        
       AUDIO :

      Format : AAC
      Format/Info : Advanced Audio Codec
      Format profile : LC
      Codec ID : 40
      Duration : 1h 57mn
      Bit rate mode : Variable
      Bit rate : 192 Kbps
      Channel(s) : 6 channels
      Channel positions : Front: L C R, Side: L R, LFE
      Sampling rate : 48.0 KHz
      Compression mode : Lossy
      Stream size : 162 MiB (18%)
      Language : English


[img]http://img194.imageshack.us/img194/5130/vlcsnap2012052819h04m08.png[/img]
[img]http://img801.imageshack.us/img801/6241/vlcsnap2012052819h09m36.png[/img]
[img]http://img804.imageshack.us/img804/6062/thegrey2012snapshotster.png[/img][img][/img]